# xmcd
#
# Track frame offsets: 
#        150
#        14452
#        28632
#        44584
#        60608
#        76860
#        91961
#        108451
#        124350
#        156278
#        171426
#        187853
#        205761
#        220886
#        237205
#        272858
#        292987
#        308722
#
# Disc length: 4486 seconds
#
# Revision: 0
# Processed by: cddbd v1.5.2PL0 Copyright (c) Steve Scherf et al.
# Submitted via: ExactAudioCopy v1.0b3
#
DISCID=fc118412
DTITLE=Various Artist - Trance Dance Vol. 14 - CD 1
DYEAR=1900
DGENRE=
TTITLE0=Kate Ryan - Only If I (Radio Edit)
TTITLE1=Special D. - Nothing I Won't Do (Radio Edit)
TTITLE2=Starspalsh - Alive (Radio Edit)
TTITLE3=Royal Gigolos - California Dreamin' (Tek-House Single)
TTITLE4=Stacccato - Can't You See ? (Get Up) (Club Edit)
TTITLE5=Rank 1 - It's Up To You (Symsonic) (Radio Edit)
TTITLE6=Gigi D'Agostino - Silence (Vision 4)
TTITLE7=Dickheadz - Wir Brauchen Bass (Single Edit)
TTITLE8=DJ Lawless Vs. Oliver Swab - Push It Again (Club Mix)
TTITLE9=Astrada - Subway #9 (Watermoon Video Edit)
TTITLE10=Cosmic Culture - Time Of Your Life (Original Radio Edit)
TTITLE11=Stella - Day By Day (Radio Edit)
TTITLE12=E-Love - Cause I Love You No More (Escanor Radio Edit)
TTITLE13=Apollo - 2gether 4ever (Single Mix)
TTITLE14=Miraluna - One Day (Extended)
TTITLE15=DJ Greenhead - Crystal (Radio Mix)
TTITLE16=Mr. Phillips - Stay Alive (Radio Edit)
TTITLE17=Marc Et Claude Feat. Tony Hadley - Feel You
EXTD=
EXTT0=
EXTT1=
EXTT2=
EXTT3=
EXTT4=
EXTT5=
EXTT6=
EXTT7=
EXTT8=
EXTT9=
EXTT10=
EXTT11=
EXTT12=
EXTT13=
EXTT14=
EXTT15=
EXTT16=
EXTT17=
PLAYORDER=
